<svg id="Layer_1" data-name="Layer 1" xmlns="http://www.w3.org/2000/svg" xmlns:xlink="http://www.w3.org/1999/xlink" viewBox="0 0 548.04 513.73"><defs><style>.cls-1,.cls-10,.cls-11,.cls-12,.cls-13,.cls-14,.cls-15,.cls-16,.cls-17,.cls-2,.cls-3,.cls-4,.cls-5,.cls-6,.cls-7,.cls-8,.cls-9{stroke-miterlimit:10;}.cls-1{fill:url(#linear-gradient);stroke:url(#linear-gradient-2);}.cls-2{fill:url(#linear-gradient-3);stroke:url(#linear-gradient-4);}.cls-3{fill:url(#linear-gradient-5);stroke:url(#linear-gradient-6);}.cls-4{fill:url(#linear-gradient-7);stroke:url(#linear-gradient-8);}.cls-5{fill:url(#linear-gradient-9);stroke:url(#linear-gradient-10);}.cls-6{fill:url(#linear-gradient-11);stroke:url(#linear-gradient-12);}.cls-7{fill:url(#linear-gradient-13);stroke:url(#linear-gradient-14);}.cls-8{fill:url(#linear-gradient-15);stroke:url(#linear-gradient-16);}.cls-9{fill:url(#linear-gradient-17);stroke:url(#linear-gradient-18);}.cls-10{fill:url(#linear-gradient-19);stroke:url(#linear-gradient-20);}.cls-11{fill:url(#linear-gradient-21);stroke:url(#linear-gradient-22);}.cls-12{fill:url(#linear-gradient-23);stroke:url(#linear-gradient-24);}.cls-13{fill:url(#linear-gradient-25);stroke:url(#linear-gradient-26);}.cls-14{fill:url(#linear-gradient-27);stroke:url(#linear-gradient-28);}.cls-15{fill:url(#linear-gradient-29);stroke:url(#linear-gradient-30);}.cls-16{fill:url(#linear-gradient-31);stroke:url(#linear-gradient-32);}.cls-17{fill:url(#linear-gradient-33);stroke:url(#linear-gradient-34);}</style><linearGradient id="linear-gradient" x1="24.34" y1="463.06" x2="571.38" y2="463.06" gradientUnits="userSpaceOnUse"><stop offset="0" stop-color="#fff"/><stop offset="0.18" stop-color="#f4f4f4"/><stop offset="0.75" stop-color="#594da0"/></linearGradient><linearGradient id="linear-gradient-2" x1="23.84" y1="463.06" x2="571.88" y2="463.06" gradientUnits="userSpaceOnUse"><stop offset="0" stop-color="#fff"/><stop offset="0.13" stop-color="#d3336c"/><stop offset="0.75" stop-color="#594da0"/></linearGradient><linearGradient id="linear-gradient-3" x1="309.65" y1="684.89" x2="309.89" y2="684.89" xlink:href="#linear-gradient"/><linearGradient id="linear-gradient-4" x1="309.15" y1="684.89" x2="310.39" y2="684.89" xlink:href="#linear-gradient-2"/><linearGradient id="linear-gradient-5" x1="309.67" y1="662.92" x2="309.88" y2="662.92" xlink:href="#linear-gradient"/><linearGradient id="linear-gradient-6" x1="309.17" y1="662.92" x2="310.38" y2="662.92" xlink:href="#linear-gradient-2"/><linearGradient id="linear-gradient-7" x1="307.25" y1="656.28" x2="307.56" y2="656.28" xlink:href="#linear-gradient"/><linearGradient id="linear-gradient-8" x1="306.75" y1="656.28" x2="308.06" y2="656.28" xlink:href="#linear-gradient-2"/><linearGradient id="linear-gradient-9" x1="307.06" y1="647.84" x2="307.11" y2="647.84" xlink:href="#linear-gradient"/><linearGradient id="linear-gradient-10" x1="306.56" y1="647.84" x2="307.61" y2="647.84" xlink:href="#linear-gradient-2"/><linearGradient id="linear-gradient-11" x1="315.15" y1="224.81" x2="315.58" y2="224.81" xlink:href="#linear-gradient"/><linearGradient id="linear-gradient-12" x1="314.79" y1="224.81" x2="315.95" y2="224.81" xlink:href="#linear-gradient-2"/><linearGradient id="linear-gradient-13" x1="314.68" y1="224.3" x2="315.1" y2="224.3" xlink:href="#linear-gradient"/><linearGradient id="linear-gradient-14" x1="314.32" y1="224.3" x2="315.46" y2="224.3" xlink:href="#linear-gradient-2"/><linearGradient id="linear-gradient-15" x1="314.17" y1="223.79" x2="314.6" y2="223.79" xlink:href="#linear-gradient"/><linearGradient id="linear-gradient-16" x1="313.82" y1="223.79" x2="314.95" y2="223.79" xlink:href="#linear-gradient-2"/><linearGradient id="linear-gradient-17" x1="313.64" y1="223.31" x2="314.1" y2="223.31" xlink:href="#linear-gradient"/><linearGradient id="linear-gradient-18" x1="313.29" y1="223.31" x2="314.44" y2="223.31" xlink:href="#linear-gradient-2"/><linearGradient id="linear-gradient-19" x1="308.57" y1="647.29" x2="308.91" y2="647.29" xlink:href="#linear-gradient"/><linearGradient id="linear-gradient-20" x1="308.15" y1="647.29" x2="309.33" y2="647.29" xlink:href="#linear-gradient-2"/><linearGradient id="linear-gradient-21" x1="313.14" y1="222.83" x2="313.6" y2="222.83" xlink:href="#linear-gradient"/><linearGradient id="linear-gradient-22" x1="312.79" y1="222.83" x2="313.95" y2="222.83" xlink:href="#linear-gradient-2"/><linearGradient id="linear-gradient-23" x1="309.93" y1="667.94" x2="309.94" y2="667.94" xlink:href="#linear-gradient"/><linearGradient id="linear-gradient-24" x1="309.43" y1="667.94" x2="310.44" y2="667.94" xlink:href="#linear-gradient-2"/><linearGradient id="linear-gradient-25" x1="309.93" y1="680.38" x2="309.94" y2="680.38" xlink:href="#linear-gradient"/><linearGradient id="linear-gradient-26" x1="309.43" y1="680.38" x2="310.44" y2="680.38" xlink:href="#linear-gradient-2"/><linearGradient id="linear-gradient-27" x1="273.83" y1="231.02" x2="296.74" y2="231.02" xlink:href="#linear-gradient"/><linearGradient id="linear-gradient-28" x1="273.31" y1="231.8" x2="297.9" y2="231.8" xlink:href="#linear-gradient-2"/><linearGradient id="linear-gradient-29" x1="384.45" y1="482.38" x2="385.61" y2="482.38" xlink:href="#linear-gradient"/><linearGradient id="linear-gradient-30" x1="383.95" y1="482.14" x2="386.11" y2="482.14" xlink:href="#linear-gradient-2"/><linearGradient id="linear-gradient-31" x1="125.95" y1="467.23" x2="138.7" y2="467.23" xlink:href="#linear-gradient"/><linearGradient id="linear-gradient-32" x1="125.39" y1="467.2" x2="139.31" y2="467.2" xlink:href="#linear-gradient-2"/><linearGradient id="linear-gradient-33" x1="144.77" y1="437.87" x2="147.47" y2="437.87" xlink:href="#linear-gradient"/><linearGradient id="linear-gradient-34" x1="144.26" y1="437.81" x2="148.01" y2="437.81" xlink:href="#linear-gradient-2"/></defs><title>work</title><path class="cls-1" d="M221.88,525.46l-4.46,1.15-21.81.93-.68,0-7.67-.64-8.53-1-5.75-.81c.31,1.45.54,2.55.77,3.64l.42,2.49c0,.5.08,1,.11,1.5l.27,1.49c.24,2.82.47,5.64.71,8.46.28,7.42.92,14.85.77,22.26a181.71,181.71,0,0,1-8.93,53.77c-1.52,4.62-3.64,9-5.49,13.54-.61.94-1.25,1.87-1.85,2.82-2.37,3.79-4.92,7.39-9.45,8.89-.57,0-1.15-.1-1.73-.1H30c-.58,0-1.16.07-1.73.1l-1-.11c-1.21-.09-2.9.47-3-1.52s1.66-1.52,2.88-1.63c.16,0,.31-.06.47-.09h21c2.65,0,5.29.08,7.94.08h74.72c.82,0,1.64-.06,2.47-.09,4.21,0,8.45-.24,12.62.17a8.67,8.67,0,0,0,9-4.73c2.78-5,5.05-10.29,7.53-15.45.35-1,.69-2,1-3l.45-1.42.95-3.22a176.84,176.84,0,0,0,7.24-46.43A200.2,200.2,0,0,0,169.45,524c-.36-1.88.26-2.74,2.16-2.51,6.81.83,13.61,1.88,20.45,2.49,8.76.79,17.54,1,26.25-.72,6-1.2,10.14-4.23,11.16-10.63.22-1.38.79-2.71.93-4.1,1.17-11.61,2.77-23.2,3.24-34.84.36-8.81-.72-17.68-1.23-26.52a5.59,5.59,0,0,0-5-5.6,83.85,83.85,0,0,0-9.52-1.65c-7.6-.51-15.22-.72-22.83-1.06,6.32,1.17,12.67,1.76,18.94,2.85A52.36,52.36,0,0,1,224.6,445a4.48,4.48,0,0,1,2.18,3.43c0,1-1.37,2.55-2.46,3a29.64,29.64,0,0,1-7.44,1.69c-12.64,1.18-25.18,0-37.64-2.07-5.27-.85-10.64-1.7-15.23-4.83l-.63-.69v-3.78h-4.87l4.4,4.32.64.78c1.66,3.11,4,6,4.87,9.36a190.53,190.53,0,0,1,6.15,53.59,17.68,17.68,0,0,1-1.18,5.79c-.41,1.09-1.63,2.46-2.6,2.56s-2.16-1.16-3-2.08a5.7,5.7,0,0,1-1.12-2.71c-1-5.6-2.37-11.19-2.87-16.84-1.11-12.55-1.84-25.13-2.59-37.7-.21-3.58-1.71-5.89-5.07-7.1a48.23,48.23,0,0,0-20.3-2.36c-.33,0-.64.32-1,.52,3.41.62,6.75.91,9.89,1.87a39.07,39.07,0,0,1,10.2,4.25c5.4,3.58,4.95,9.56-.59,12.86-1.46.88-3.06,1.51-4.44,2.18.82.91,1.68,1.79,2.46,2.73,2.19,2.63,1.82,4.71-1.23,6.12A25.09,25.09,0,0,1,146,481.5c-2.8.6-5.65,1-8,1.39,3.54,1.49,7.6,2.73,11.16,4.82,4.36,2.55,4.51,6.94.75,10.32a50.33,50.33,0,0,1-5.4,4,6.88,6.88,0,0,0-3.27,5.28c-.15,1.65-.4,3.3-.41,4.94-.13,14.11,2.64,27.8,6.26,41.33,3,11.22,6.9,22,14.09,31.44a25.39,25.39,0,0,1,3.5,7.59c2.2,6.74,1.45,13.56.1,20.35-.28.92-.56,1.84-.85,2.75l-.49,1.47-1.06,2.74c-2.61,5.68-5.86,10.89-10.85,14.82-6.8,5.35-14.64,5.87-21.36.48-4-3.19-7-7.57-10.46-11.41l-.32-.4c-2.92-6.53-6.22-12.92-8.66-19.62-3.77-10.37-5.84-21.21-7.29-32.15-.44-4-.87-8-1.32-12-.52-4.59-1.08-9.17-1.56-13.77-.26-2.51-.47-5-.56-7.54-.2-5.08-.36-10.17-.43-15.25q-.24-16-.35-31.94c0-4.67-.08-9.35.32-14,.68-8,2-16,6.35-23a28.77,28.77,0,0,1,18.53-13.35c5.4-1.23,11-1.45,16.54-2.2a11.37,11.37,0,0,0,2.6-1c-.77-.64-1.45-1.65-2.32-1.84-5-1.12-10-1.61-15.11-.05-2.3.7-4.83.69-7.26,1-1.73.19-2.37-.83-2.44-2.39-.15-3.52,2.26-5.8,4.33-8,3.08-3.3,6.78-6,9.78-9.4a50.38,50.38,0,0,1,11.22-9.31,79.39,79.39,0,0,1,15.85-7.32c7.44-2.52,15.12-4.36,22.75-6.3,10.3-2.62,20.74-4.74,30.94-7.7a69.67,69.67,0,0,0,15.95-7c2.24-1.33,3.64-4.62,4.69-7.31a71.77,71.77,0,0,0,3.44-12.05,18.91,18.91,0,0,0-.11-7.15c-.18-1-1.86-1.61-3-2.54-.94,5.64-1.6,10.82-2.69,15.91-1.68,7.88-6.93,12.44-14.4,14.94a201.05,201.05,0,0,1-30.54,8c-.95.16-1.86.84-2.78.82a3.69,3.69,0,0,1-2.45-1c-.29-.31.11-1.47.42-2.13,2.42-5,5.12-10,7.29-15.11,2.41-5.69,4.56-11.52,6.46-17.41,1.75-5.42,3.16-11,4.49-16.5,1.17-4.85,2.22-9.74,3-14.67s1-9.93,1.55-14.89c.39-3.33.9-6.65,1.57-9.93,1.23-6.06,2.39-12.15,4-18.11q2.7-10,6.18-19.85a149.73,149.73,0,0,1,7.48-18.46,183.48,183.48,0,0,1,11.33-18.42A40.15,40.15,0,0,1,248,209.71a25.69,25.69,0,0,1,21.68-1.17,6,6,0,0,0,5-.16c4.35-1.84,8.92-1.06,13.45,0,9.74,2.31,17.8,7.52,25,14.21l.46.46,0,0,.46.44.07.05.43.42.08.08.42.44,0,.06c.15.15.29.31.43.46,2.58,2.86,5.35,5.58,7.67,8.64,2.59,3.42,4.88,7.09,7.13,10.76,6.52,10.66,11.62,22,14.22,34.22a108.17,108.17,0,0,1,2.55,21.71c.07,12.07-3.62,23.48-8.35,34.51a114.87,114.87,0,0,1-22.68,34.28c-2.08,2.18-3.67,4.83-5.56,7.2-6.08,7.61-13.92,11.86-23.7,10.35-4.75-.74-9.47-2.9-13.72-5.29a114.53,114.53,0,0,1-22.52-16.88,2.09,2.09,0,0,0-2,.11,35.52,35.52,0,0,0-2.72,5.45c-2.95,7.55-6.57,14.6-13.41,19.5a24.41,24.41,0,0,1-12.85,4.23c-4.49.34-5.8,2.68-3.65,6.78,2.43,4.61,6.47,7.55,10.93,9.94a48.89,48.89,0,0,0,17.69,5.14,237.23,237.23,0,0,0,26.33,2c11.29,0,22.52-1.37,33.09-5.8,7.45-3.12,13.07-8.11,14.51-16.45.53-3,0-6.27.05-9.41s.3-6,.53-9c.15-1.89,1.68-2.3,3.14-2.38,14.89-.8,29.58.21,43.73,5.34,8.61,3.12,16.76,7.24,21.46,15.53C390,400,391.57,405,393.16,410A466.75,466.75,0,0,1,407,463.71c1.2,6.18,1.47,12.54,2.15,18.82a8.82,8.82,0,0,1-4.09,8.66c-5,3.41-10.16,6.61-15.18,10a3.14,3.14,0,0,0-1.22,2.22c-.22,14-.34,28-.52,42.05,0,2.73-.29,5.47-.28,8.2a2.21,2.21,0,0,1-2.12,2.5c-12,2.3-24,4.65-36,7-8.93,1.73-17.86,3.47-26.8,5.12a2.61,2.61,0,0,0-2.35,2.57c-3.5,21.21-7.08,42.4-10.51,63.62-.46,2.86-2.24,3-4.56,3a42.48,42.48,0,0,0,.73,5c.14.54,1.06,1.1,1.71,1.24,3.58.75,4.16,1,4.35,4.57.46,9.1,1,18.23.8,27.34-.27,11.24-1.26,22.48-2,33.71a41.46,41.46,0,0,1-1.35,6c1.65.22,3.33.59,5,.65a308.22,308.22,0,0,0,43-1.83c13.1-1.32,26.22-2.56,39.29-4.24,14.94-1.91,29.87-4,44.71-6.51,16.94-2.93,33.8-6.32,50.62-9.85a197.31,197.31,0,0,0,35.09-10.44c1.06-.44,2.08-1,3.14-1.44,5.38-2.29,8.31-6,9.83-12,6.12-24,13.14-47.74,19.24-71.72,3.6-14.16,6.16-28.59,9-42.93a39.48,39.48,0,0,0,.37-8.43c-.07-3.73-1-4.76-4.83-4.64A142.9,142.9,0,0,0,549.54,543q-22.27,3-44.5,6.25c-15,2.19-29.92,4.7-44.93,6.73-13.45,1.82-27,3.24-40.47,4.71-4.29.46-4.44.27-4.89,4.62A33.28,33.28,0,0,1,407.21,583C390,604.83,373,626.87,356,649c-3.15,4.12-5.59,8.78-8.3,13.23a9.18,9.18,0,0,0-1.5,5.77,6.91,6.91,0,0,0,2.53-.45q9.62-6.37,19.11-12.92C397.71,634,428.93,616,462.79,602.82c4.51-1.75,9.33-2.74,14-4a12.21,12.21,0,0,1,3.2-.31c5.25,0,7.14,2.84,4.32,7.31A55.7,55.7,0,0,1,476,616c-7.77,7.58-15.94,14.76-23.74,22.32-6.13,5.94-12,12.19-16.24,19.69a20.16,20.16,0,0,0-2,5c-.68,2.66.29,4.3,3,4.16,4.49-.23,9.2-.41,13.39-1.86,9.1-3.15,17.93-7.09,26.87-10.71.69-.28,1.34-.85,2-.89a7.8,7.8,0,0,1,2.32.6c-.3.75-.39,1.88-.93,2.18-2.3,1.3-4.72,2.39-7.13,3.47-9.88,4.44-19.79,8.79-30.61,10.45a21.26,21.26,0,0,1-6.66,0c-4.8-.83-6.63-4-5.38-8.73,1.36-5.18,4.57-9.33,7.83-13.39,9-11.16,19.72-20.56,30.24-30.19a171.22,171.22,0,0,0,11.84-12.68c.66-.74.63-2.08.93-3.15-1.05-.13-2.18-.6-3.11-.34-6.58,1.84-13.35,3.27-19.63,5.87-34.39,14.25-66.36,32.82-96.46,54.68-2.94,2.13-6.07,4-9.19,5.89a14.58,14.58,0,0,1-4.51,2c-1.58.31-3.88.61-4.78-.24s-.9-3.37-.29-4.7c2.19-4.79,4.31-9.74,7.35-14q17.22-24,35.06-47.58c6.38-8.47,13.11-16.68,19.92-24.81,4.34-5.17,5.22-11.21,5.76-17.74-.92,0-1.64,0-2.35,0-3.07,0-6.15,0-9.2-.18-7.23-.51-8.54-1.93-8.56-9q-.06-20.28-.06-40.55a12.56,12.56,0,0,0,0-1.5c-.77-6.39,3.31-9.76,8.12-12.34s9.82-.14,10.71,5.38c1.39,8.65,2.52,17.34,3.56,26,.56,4.73.75,9.52,1,14.29s.44,9.37.66,14.39c4.8-.4,9.72-.68,14.6-1.24,7.36-.84,14.7-1.86,22-2.85q11.31-1.55,22.62-3.21c9.43-1.39,18.85-2.85,28.28-4.27,9.64-1.45,19.26-3,28.93-4.31,8.18-1.08,16.4-1.83,24.61-2.65a69.61,69.61,0,0,1,8.16-.44c4.43.08,6.41,1.76,6.36,6-.09,6.1-.06,12.3-1.14,18.26-2.21,12.25-4.84,24.43-7.81,36.52-3.74,15.22-8,30.32-12,45.45-2.57,9.59-5.24,19.14-7.85,28.71a11.46,11.46,0,0,1-6.63,7.9c-5.23,2.31-10.32,5-15.71,6.85C512.69,691,505,693,497.28,695.06c-6.41,1.7-12.85,3.33-19.34,4.65-10.33,2.09-20.7,3.93-31.07,5.81-7.28,1.32-14.56,2.61-21.86,3.76-5.49.87-11,1.5-16.51,2.22s-10.84,1.42-16.25,2.11c-5,.64-10.07,1.31-15.12,1.86q-11.56,1.28-23.16,2.36c-4.75.44-9.51.85-14.28,1q-12.65.46-25.31.57a17.88,17.88,0,0,1-5.92-1c-2.35-.82-2.66-2.4-2.15-4.9q1.37-6.78,2.23-13.64c.54-4.19.76-8.43,1.11-12.64l.24-4.6c0-.64,0-1.28,0-1.92,0-.19,0-.38,0-.57V667.65c0-.8,0-1.61-.05-2.42l-.21-4.62q-.37-6.52-.76-13.06l-.34-.53-1.46-.19c0,.68,0,1.35-.05,2,.06,1.79.13,3.59.19,5.39.1,1.35.2,2.71.31,4.06-.15,7-.12,13.91-.5,20.85-.57,10.8-1.31,21.62-5,31.93a21.27,21.27,0,0,1-3.83,6.39,4.3,4.3,0,0,1-5.78.83,77.86,77.86,0,0,1-10.24-7.67,137.46,137.46,0,0,1-12.1-12.75c-7.34-8.85-14.59-17.79-21.44-27-2.55-3.45-4-7.78-5.71-11.79-1.14-2.62.54-4.11,2.77-4.74,5.76-1.62,11.53-3.23,17.38-4.49q12.43-2.7,25-4.84c4.92-.84,9.94-1.15,15-1.71,0-.66,0-1.23,0-1.8.14-3.54-.08-3.85-3.56-3.68-9.53.46-19,1-28.56,1.49-2.44.13-4.88.3-7.32.38-6.93.23-13.87.48-20.8.61q-27.43.56-54.86,1c-4.4.06-8.82-.23-13.22-.5a10,10,0,0,1-4.08-1,7,7,0,0,1-2.3-2.7,4,4,0,0,1,1.92-1.65A66.32,66.32,0,0,1,181,632.93c11.48-1.16,23-2,34.49-2.95,3.29-.26,6.6-.4,9.91-.52,6.45-.23,12.91-.42,19.36-.61s12.75-.33,19.12-.52a5.51,5.51,0,0,0,1.39-.41l3-.08,5-.05,2.49,0,3.49,0,6,0,13.44.06c3.63-.22,4.73,2.28,5.65,5.1.17.54.92.89,1.4,1.33.44-.49,1.15-.94,1.25-1.49.5-2.76.84-5.55,1.24-8.32l.65-3.43c.44-2.84.89-5.68,1.33-8.52l.87-5c.52-3.15,1-6.31,1.55-9.46.14-.66.27-1.33.41-2,.4-2.49.81-5,1.21-7.46l.87-5.48q1.4-7.92,2.8-15.83l.24-1,4.51-1.31,1.41-.37,6.56-1.14,2.91-.62,3-.66,1-.12,3.79-.8,2.27-.33,7.47-1.44,3-.63,16.86-3.26,1.49-.32,1.58-.22,1.91-.43c2.6-.47,5.21-.87,7.78-1.46a2,2,0,0,0,1.1-1.46c.34-11.27.6-22.54.88-33.81l.09-6.52,0-3c.05-1.57.18-3.14.09-4.7,0-.55-.61-1.07-.93-1.6l-2.22-3.23-.42-4.91,0-1-.5-6.64c-.09-2.32-.36-4.64-.22-6.94.23-3.82-.38-7.85,2.37-11.15l.94-.29a8.35,8.35,0,0,1,1.55,2.24c.53,1.93.79,3.94,1.17,5.92.11.81.22,1.61.32,2.42q.22,3,.43,6c0,.66,0,1.32.07,2,0,1.85.07,3.7.1,5.54l.06,2.46v3.72a67.67,67.67,0,0,0,14.73-9.61c2.3-1.91,3.5-4.09,2.9-7.09l-.54-6.47q-1.2-6.72-2.41-13.44l-1.47-7-.67-3.57-.88-3.4-1.48-6q-.75-3-1.52-6c-.19-.86-.39-1.71-.59-2.57l-.57-2c-3-9.84-6-19.7-9.12-29.5-2.23-6.91-7.23-11.46-13.53-14.72l-1.42-.85-6.54-2.76-1.34-.44-13.6-3.5-6-.92-10.95-.94h-2c-1.14.11-2.27.3-3.41.32-6.76.17-6.76.16-5.77,7.08l.21,2c-.14,3-.27,6-.41,9l-.84,3.4-3.69,7.24-.62.78-4.49,4-.89.58-17.74,6.82-3.17.62-8,1.05-1.61.09-7.35.46-1.49,0h-4l-7.46-.1-4.88-.39-.52,0-9.54-1.06-6-1c-.54-.17-1.08-.39-1.63-.51A44.78,44.78,0,0,1,222,411.38c-4.23-2.87-8-6.18-9.74-11.22-1.62-4.78.47-8.41,5.42-9.4,1.77-.36,3.62-.33,5.39-.68,7.82-1.53,12.74-6.74,16.23-13.43,2.64-5.06,4.83-10.36,7.31-15.76l-7-6c-.77,4.14-1.4,8.1-2.24,12-2.06,9.51-7,16.66-16.72,19.68-4.09,1.27-8.14,2.66-12.2,4L207,391l-7.47,1.92-4,1-3.57.68-1.9.44-24,6-.92.37-4.31,1.34-2.74.86c-.93.33-1.87.63-2.8,1-14.16,5.2-24.15,15.75-34,26.49a13.71,13.71,0,0,0-1.24,2,12.7,12.7,0,0,0,2.29.08c1.85-.34,3.69-.79,5.54-1.19a30.88,30.88,0,0,1,13.36.15c4.06,1.9,8.13,3.8,12.2,5.67a3.93,3.93,0,0,0,1.6.47c3.53,0,7.06,0,10.59-.07l2.49.05,5.48-.53,3.48-.58,5.55-.57,2.42-.34,2.49-.11,7.46-.4,1,0,15.93.4,4.89.43,9,1.21,4.48,1.35a.43.43,0,0,0,.43.12l3,2.17c.3.62.6,1.23.89,1.85l1.89,11.35.23,1.53.25,10.4c0,1.49,0,3,0,4.45l0,1.08v1l-.12,7c0,.66,0,1.32-.07,2s-.17,1.63-.25,2.45c-.08,1.67-.17,3.34-.25,5l-.45,5c-.1.72-.2,1.44-.29,2.16-.17,1.24-.35,2.48-.52,3.72,0,.37-.07.73-.1,1.09l-.61,4.48c-.19,1-.38,2-.56,3a15.65,15.65,0,0,0-.46,1.62C232.1,517.45,229.64,523.48,221.88,525.46Zm-77.11-87h2.65l.05-.61-2.68-.63-1.6.46Zm17.16,12.92,1.21,1.13.21-.24c-.35-.41-.7-.83-1-1.25-2.56-2.77-5.05-5.62-7.74-8.27a4.67,4.67,0,0,0-3.09-1.07c-6,.08-12.15-.08-18.14.59-14.45,1.61-25,9-28.19,23.16a117.71,117.71,0,0,0-2.52,22.65,540.05,540.05,0,0,0,3.77,79.18c1.55,12.75,3.68,25.37,8.08,37.48,3.41,9.38,7.44,18.45,14.74,25.56s15.57,7,22.66-.38c6.88-7.17,10.14-16,10.81-25.75a27.9,27.9,0,0,0-6.1-20.16,42.89,42.89,0,0,1-4.81-8.08c-5.8-11.82-9.05-24.44-11.46-37.3-1.9-10.1-3.44-20.25-2.57-30.61.32-3.71,1.57-6.69,4.83-8.7,1.54-1,3-2,4.47-3.15,3-2.33,2.94-4.31-.36-6.29a16.8,16.8,0,0,0-4.53-1.94c-4-1-8.07-1.73-12.07-2.72-1.58-.4-4-.49-3.79-2.65.07-.83,2.52-1.79,4-2.06,3.82-.71,7.73-1,11.56-1.59,2.87-.48,5.68-1.29,9.14-2.09-3.21-2.9-5.36-5.19-9.6-4.53a24.52,24.52,0,0,1-15.51-2.16c-2.58-1.36-3.86-3.55-3.11-5.54,1-2.6,3.36-2.66,5.41-2.12,4.61,1.21,9.37,2.27,13.58,4.39,3.53,1.78,6.41,1.34,9.52-.15,1.85-.89,3.89-1.8,4-4.3a4.89,4.89,0,0,0-3.49-4.7,92.18,92.18,0,0,0-11.27-3.57c-3.44-.86-7-1.17-10.47-2-.95-.22-2.43-1.42-2.37-2,.1-1,1.2-2,2.09-2.66a5.25,5.25,0,0,1,2.54-.87,67.11,67.11,0,0,1,9.15-.7C148.66,446.16,155.86,446.75,161.93,451.41ZM327.1,310c-.7-7-1.15-14-2.19-21a36.35,36.35,0,0,0-8.21-18.84c-6.09-7.05-14.24-10-23.13-11.24-7.1-1-14.16-1.35-20.94,1.83a42.44,42.44,0,0,0-17.27,15.31c-5.91,8.87-11.26,18.11-16.85,27.19-4,6.51-8.3,12.24-16.77,13.81-5.93,1.1-7.16,6.43-2.94,10.93a33.47,33.47,0,0,0,8.44,6.35c5.89,3.2,9.8,7.7,11.27,14.29a4,4,0,0,0,1.15,2.06c3.19,2.76,6.45,5.45,9.72,8.12a2.74,2.74,0,0,0,1.7.78c5.54-.64,10.51,1.27,15.14,3.84,7.22,4,14.28,8.34,21.29,12.71,2.71,1.69,5.55,2.49,8.5,1.65,8-2.3,15.07-6.32,19-14C323.58,347,326.57,328.84,327.1,310Zm-92.42,37.41a16.61,16.61,0,0,0-9-10c-4.23-2.07-8-4.7-10.63-8.72-3.8-5.84-2-11.64,4.42-14.39a10.4,10.4,0,0,1,3.05-1c4.42-.34,7.27-3,9.57-6.39s4.51-7.13,6.76-10.69c5.13-8.1,10-16.42,15.51-24.21,5.26-7.4,12.14-13.12,21.12-15.77,7.56-2.24,15.12-1.25,22.62.26,15.14,3,25.1,11.94,28.76,27a111.55,111.55,0,0,1,2.9,21.08,135.32,135.32,0,0,1-7.41,51.49,6,6,0,0,0,2-1.95c4.13-7.52,8.72-14.84,12.21-22.64,7.1-15.87,9.44-32.41,5.53-49.65a117.25,117.25,0,0,0-25.75-51c-7.9-9.22-17.16-16.52-29.32-19.39-4.52-1.07-8.09-1.09-10.53.25l1.2.88C290,221.71,297.27,234,300.25,249a4.66,4.66,0,0,1-1.1,3.9c-1.51,1.18-2.92-.22-3.94-1.47a35.88,35.88,0,0,1-2.64-3.61c-1.79-2.87-3.51-5.8-5.25-8.71-3.62-6.05-7.31-12-12.91-16.56a9.81,9.81,0,0,1-3.75-8.79,2.17,2.17,0,0,0-1.08-1.72c-6.17-2.4-12.35-2.85-18.54,0-6.43,3-11.19,7.91-15.37,13.44-8.16,10.79-13.57,23-18.17,35.63-7.11,19.56-10.47,39.89-13,60.45a189.17,189.17,0,0,1-16.61,57.12c-1,2.26-2.18,4.48-3.45,7.1,11.5-2.46,22.57-4.77,33-9.31a15.1,15.1,0,0,0,8.91-11c1.08-4.75,1.56-9.62,2.43-14.42C229.51,347.11,230.47,346.54,234.68,347.45ZM304,646.9a46.35,46.35,0,0,0-4.9,0,296.69,296.69,0,0,0-49.31,9.75c-4.51,1.32-5.12.64-2.2,5.41a242.46,242.46,0,0,0,14.86,21.65c7.85,10.17,16.22,20,26.35,28,6.19,4.9,7.64,6.39,10.75-3.29,3.3-10.24,4-21,4.37-31.61C304.32,666.88,304,656.94,304,646.9ZM412.17,549l.52,0c-1-10.7-2-21.41-3.17-32.1-.51-4.58-1.44-9.14-2.35-13.67-.58-2.85-2-3.57-4.67-2.7-5.43,1.78-7.8,4.86-7.77,10.46.08,14.66.27,29.32.3,44,0,1.93,1,2.56,2.46,2.64,4.38.24,8.76.4,13.15.43.5,0,1.42-1,1.46-1.54C412.26,554,412.17,551.51,412.17,549Zm-238.7,88,0,1.19c42.92,1.65,85.7-1.91,128.55-3.78-.22-2.53-1.43-3.36-3.49-3.37-4.39,0-8.79-.32-13.18-.16-29,1.1-58,2.17-87,3.53C190.05,634.86,181.77,636.17,173.47,637.06ZM223.93,447.7a39.27,39.27,0,0,0-5.49-2c-15.4-3.15-31.05-3.46-46.68-3.9-1.73-.05-3.49,1-5.6,1.72C175.05,449.53,216.39,452.55,223.93,447.7Zm-54.1,67.16,1.15-.22a180.51,180.51,0,0,0-6.75-60.93c.17,5.28.59,10.54,1,15.79,1,12.95,2,25.91,3.05,38.85A41.86,41.86,0,0,0,169.83,514.86Zm131.53-135c-.69.18-1.38.33-2.05.55a14.9,14.9,0,0,1-13.93-1.67c-3.63-2.45-7.29-4.89-11.12-7-5.12-2.81-10.39-5.35-15.65-7.88a18.46,18.46,0,0,0-4-.95,69.47,69.47,0,0,0,8.12,7.2c6.69,5.15,13.53,10.09,21.76,12.53C290.53,384.46,296.22,383.79,301.36,379.88ZM273.83,213.81c.07,3.45,1.73,5.29,3.58,7.14a53.59,53.59,0,0,1,6.84,7.47c3.64,5.3,6.87,10.88,10.26,16.35.39.63.75,1.29,1.15,1.91s.72,1,1.08,1.55C293.16,234.25,286.51,222.36,273.83,213.81ZM385.61,471.32l-.89,0c-.78,8.12.35,16.14.89,22.08ZM126.3,465l-.35,1.28c3.54,3.49,8.2,2.65,12.51,3.18l.24-.86Z" transform="translate(-23.84 -206.19)"/><path class="cls-2" d="M309.89,682.59l-.24,4.6Z" transform="translate(-23.84 -206.19)"/><path class="cls-3" d="M309.67,660.61l.21,4.62Z" transform="translate(-23.84 -206.19)"/><path class="cls-4" d="M307.56,658.31c-.11-1.35-.21-2.71-.31-4.06C307.35,655.6,307.45,657,307.56,658.31Z" transform="translate(-23.84 -206.19)"/><path class="cls-5" d="M307.06,648.86l.05-2Z" transform="translate(-23.84 -206.19)"/><path class="cls-6" d="M315.58,225l-.43-.46Z" transform="translate(-23.84 -206.19)"/><path class="cls-7" d="M315.1,224.52l-.42-.44Z" transform="translate(-23.84 -206.19)"/><path class="cls-8" d="M314.6,224l-.43-.42Z" transform="translate(-23.84 -206.19)"/><path class="cls-9" d="M314.1,223.53l-.46-.44Z" transform="translate(-23.84 -206.19)"/><path class="cls-10" d="M308.57,647l.34.53Z" transform="translate(-23.84 -206.19)"/><path class="cls-11" d="M313.6,223.06l-.46-.46Z" transform="translate(-23.84 -206.19)"/><path class="cls-12" d="M309.93,667.65v.57C309.94,668,309.93,667.84,309.93,667.65Z" transform="translate(-23.84 -206.19)"/><path class="cls-13" d="M309.94,680.1c0,.19,0,.38,0,.57Z" transform="translate(-23.84 -206.19)"/><path class="cls-14" d="M273.83,213.81c12.68,8.55,19.33,20.44,22.91,34.42-.36-.52-.75-1-1.08-1.55s-.76-1.28-1.15-1.91c-3.39-5.47-6.62-11.05-10.26-16.35a53.59,53.59,0,0,0-6.84-7.47C275.56,219.1,273.9,217.26,273.83,213.81Z" transform="translate(-23.84 -206.19)"/><path class="cls-15" d="M385.61,471.32v22.11c-.54-5.94-1.67-14-.89-22.08Z" transform="translate(-23.84 -206.19)"/><path class="cls-16" d="M126.3,465l12.4,3.6-.24.86c-4.31-.53-9,.31-12.51-3.18Z" transform="translate(-23.84 -206.19)"/><path class="cls-17" d="M144.79,437.25l2.68.63-.05.61h-2.65C144.78,438.08,144.79,437.66,144.79,437.25Z" transform="translate(-23.84 -206.19)"/></svg>